<?xml version="1.0" encoding="iso-8859-1" standalone="no"?> 
<?xml-stylesheet href="ELEC300A1.css" type="text/css"?> 
<svg xmlns="http://www.w3.org/2000/svg" xmlns:xlink="http://www.w3.org/1999/xlink" width="175.74454pt" height="101.58313pt" viewBox="-22.71556 -20.82216 175.74454 101.58313 "> 
<g transform="translate(0, 80.76097 ) scale(1,-1) translate(0,20.82216 )"> 
      <g> 
 <g stroke="rgb(0.0%,0.0%,0.0%)"> 
 <g fill="rgb(0.0%,0.0%,0.0%)"> 
 <g stroke-width="0.4pt"> 
 <g> 
 <path d=" M  0.0 0.0 L  0.0 0.2 M  0.0 28.45274 M  0.0 0.0 L  0.0 16.50253 M  0.0 40.40295 L  0.0 56.90549 M  0.0 40.40295 L  0.0 56.90549 M  0.0 48.65422 M  0.0 56.70549 L  0.0 56.90549 L  0.2 56.90549 M  28.45274 56.90549 M  0.0 56.90549 L  28.45274 56.90549 M  28.45274 56.90549 L  56.90549 56.90549 M  56.90549 56.90549 M  56.70549 56.90549 L  56.90549 56.90549 L  56.90549 56.70549 M  56.90549 28.45274 M  56.90549 56.90549 L  56.90549 44.38626 M  56.90549 12.51923 L  56.90549 0.0 M  63.47812 28.45274 M  63.47812 28.45274 M  53.71873 49.40108 M  53.71873 7.50441 M  56.90549 0.2 L  56.90549 0.0  " style="fill:none"/> 
 <g> 
 </g> 
 <g> 
 </g> 
 <g> 
 <g stroke="rgb(0.0%,0.0%,0.0%)"> 
 <g fill="rgb(0.0%,0.0%,0.0%)"> 
 <g stroke-width="0.79999pt"> 
 <path d=" M  -11.95021 28.45274 C  -11.95021 21.85275 -6.59999 16.50253 0.0 16.50253 C  6.59999 16.50253 11.95021 21.85275 11.95021 28.45274 C  11.95021 35.05273 6.59999 40.40295 0.0 40.40295 C  -6.59999 40.40295 -11.95021 35.05273 -11.95021 28.45274 Z M  0.0 28.45274  " style="fill:none"/> 
 <path d=" M  0.0 20.08765 L  0.0 36.81784  " style="fill:none"/> 
 <g> 
 <g> 
 <g transform="matrix(0.0,1.0,-1.0,0.0,0.0,34.42784)"> 
 <g fill="rgb(0.0%,0.0%,0.0%)"> 
 <text style="stroke:none" transform="scale(1,-1) translate(0.0,0)" text-anchor="middle"  font-size="12"> 
</text> 
</g> 
 </g> 
 </g> 
 <g> 
 <g> 
 <g stroke="rgb(0.0%,0.0%,0.0%)"> 
 <g fill="rgb(0.0%,0.0%,0.0%)"> 
 <path d=" M  0.0 32.68513 L  1.99167 32.68513 L  0.0 36.91743 L  -1.99167 32.68513 L  0.0 32.68513  " /> 
 </g> 
 </g> 
 </g> 
 </g> 
 </g> 
 <g stroke-width="0.4pt"> 
 <g> 
 <g transform="matrix(0.0,1.0,-1.0,0.0,0.0,28.45274)"> 
 <g fill="rgb(0.0%,0.0%,0.0%)"> 
 <text style="stroke:none" transform="scale(1,-1) translate(0.0,0)" text-anchor="middle"  font-size="12"> 
</text> 
</g> 
 </g> 
 </g> 
 </g> 
 </g> 
 </g> 
 </g> 
 </g> 
 <g> 
 </g> 
 <g> 
 </g> 
 <g> 
 <g> 
 <g transform="matrix(0.0,1.0,-1.0,0.0,0.0,48.65422)"> 
 <g fill="rgb(0.0%,0.0%,0.0%)"> 
 <text style="stroke:none" transform="scale(1,-1) translate(0.0,0)" text-anchor="middle"  font-size="12"> 
</text> 
</g> 
 </g> 
 </g> 
 <g> 
 <g> 
 <g stroke="rgb(0.0%,0.0%,0.0%)"> 
 <g fill="rgb(0.0%,0.0%,0.0%)"> 
 <path d=" M  0.0 46.91151 L  1.99167 46.91151 L  0.0 51.14381 L  -1.99167 46.91151 L  0.0 46.91151  " /> 
 </g> 
 </g> 
 </g> 
 </g> 
 </g> 
 <g> 
 <g> 
 <g transform="matrix(1.0,0.0,0.0,1.0,-18.79936,44.55423)"> 
 <g fill="rgb(0.0%,0.0%,0.0%)"> 
 <text style="stroke:none" transform="scale(1,-1) translate(7.34158,0)" text-anchor="middle"  font-size="12"> 
2A</text> 
</g> 
 </g> 
 </g> 
 </g> 
 <g> 
 </g> 
 <g> 
 </g> 
 <g> 
 <g stroke="rgb(0.0%,0.0%,0.0%)"> 
 <g fill="rgb(0.0%,0.0%,0.0%)"> 
 <g stroke-width="0.4pt"> 
 <g> 
 <g transform="matrix(1.0,0.0,0.0,1.0,28.45274,56.90549)"> 
 <g fill="rgb(0.0%,0.0%,0.0%)"> 
 <text style="stroke:none" transform="scale(1,-1) translate(0.0,0)" text-anchor="middle"  font-size="12"> 
</text> 
</g> 
 </g> 
 </g> 
 </g> 
 </g> 
 </g> 
 </g> 
 <g> 
 </g> 
 <g> 
 </g> 
 <g> 
 <g> 
 <g transform="matrix(1.0,0.0,0.0,1.0,56.90549,56.90549)"> 
 <g fill="rgb(0.0%,0.0%,0.0%)"> 
 <text style="stroke:none" transform="scale(1,-1) translate(0.0,0)" text-anchor="middle"  font-size="12"> 
</text> 
</g> 
 </g> 
 </g> 
 <g> 
 <g> 
 <g stroke="rgb(0.0%,0.0%,0.0%)"> 
 <g fill="rgb(0.0%,0.0%,0.0%)"> 
 <path d=" M  58.49857 56.90549 C  58.49857 57.78532 57.78532 58.49857 56.90549 58.49857 C  56.02565 58.49857 55.31241 57.78532 55.31241 56.90549 C  55.31241 56.02565 56.02565 55.31241 56.90549 55.31241 C  57.78532 55.31241 58.49857 56.02565 58.49857 56.90549 Z M  56.90549 56.90549  " /> 
 </g> 
 </g> 
 </g> 
 </g> 
 </g> 
 <g> 
 </g> 
 <g> 
 </g> 
 <g> 
 <g stroke="rgb(0.0%,0.0%,0.0%)"> 
 <g fill="rgb(0.0%,0.0%,0.0%)"> 
 <g stroke-width="0.79999pt"> 
 <g stroke-linejoin="bevel"> 
 <path d=" M  56.90549 44.78625 L  62.88058 41.69734 L  50.93039 36.3195 L  62.88058 30.94167 L  50.93039 25.56383 L  62.88058 20.18599 L  50.93039 14.80815 L  56.90549 12.11923  " style="fill:none"/> 
 <g stroke-width="0.4pt"> 
 <g> 
 <g transform="matrix(0.0,-1.0,1.0,0.0,56.90549,28.45274)"> 
 <g fill="rgb(0.0%,0.0%,0.0%)"> 
 <text style="stroke:none" transform="scale(1,-1) translate(0.0,0)" text-anchor="middle"  font-size="12"> 
</text> 
</g> 
 </g> 
 </g> 
 </g> 
 </g> 
 </g> 
 </g> 
 </g> 
 </g> 
 <g> 
 </g> 
 <g> 
 </g> 
 <g> 
 </g> 
 <g> 
 <g> 
 <g transform="matrix(1.0,0.0,0.0,1.0,67.59431,25.86942)"> 
 <g fill="rgb(0.0%,0.0%,0.0%)"> 
 <text style="stroke:none" transform="scale(1,-1) translate(10.11795,0)" text-anchor="middle"  font-size="12"> 
50&#x03A9;</text> 
</g> 
 </g> 
 </g> 
 </g> 
 <g> 
 </g> 
 <g> 
 </g> 
 <g> 
 </g> 
 <g> 
 </g> 
 <g> 
 </g> 
 <g> 
 </g> 
 <g> 
 </g> 
 <g> 
 </g> 
 <g> 
 <g> 
 <g transform="matrix(1.0,0.0,0.0,1.0,46.90753,47.40108)"> 
 <g fill="rgb(0.0%,0.0%,0.0%)"> 
 <text style="stroke:none" transform="scale(1,-1) translate(3.3056,0)" text-anchor="middle"  font-size="12"> 
<tspan font-family="cmr" font-size="8">+</tspan></text> 
</g> 
 </g> 
 </g> 
 </g> 
 <g> 
 <g> 
 <g transform="matrix(1.0,0.0,0.0,1.0,44.1854,4.50441)"> 
 <g fill="rgb(0.0%,0.0%,0.0%)"> 
 <text style="stroke:none" transform="scale(1,-1) translate(4.66667,0)" text-anchor="middle"  font-size="12"> 
<tspan font-family="cmsy" font-size="10">-</tspan></text> 
</g> 
 </g> 
 </g> 
 </g> 
 <g> 
 </g> 
 <g> 
 <g> 
 <g transform="matrix(1.0,0.0,0.0,1.0,36.75613,26.76941)"> 
 <g fill="rgb(0.0%,0.0%,0.0%)"> 
 <text style="stroke:none" transform="scale(1,-1) translate(5.35971,0)" text-anchor="middle"  font-size="12"> 
<tspan font-family="cmmi" font-size="12">v</tspan><tspan baseline-shift="sub"><tspan font-family="cmmi" font-size="8">o</tspan> </tspan></text> 
</g> 
 </g> 
 </g> 
 </g> 
 <path d=" M  56.90549 56.90549 L  57.10548 56.90549 M  85.35823 56.90549 M  56.90549 56.90549 L  69.42471 56.90549 M  101.29175 56.90549 L  113.81097 56.90549 M  85.35823 63.47812 M  85.35823 63.47812 M  85.35823 71.22812 M  85.35823 71.22812 M  113.61098 56.90549 L  113.81097 56.90549 L  113.81097 56.70549 M  113.81097 28.45274 M  113.81097 56.90549 L  113.81097 40.40295 M  113.81097 16.50253 L  113.81097 0.0 M  113.81097 0.2 L  113.81097 0.0 L  113.61098 0.0 M  85.35823 0.0 M  113.81097 0.0 L  101.29175 0.0 M  69.42471 0.0 L  56.90549 0.0 M  85.35823 -6.57263 M  85.35823 -6.57263 M  85.35823 -14.32263 M  85.35823 -14.32263 M  57.10548 0.0 L  56.90549 0.0  " style="fill:none"/> 
 <g> 
 </g> 
 <g> 
 </g> 
 <g> 
 <g stroke="rgb(0.0%,0.0%,0.0%)"> 
 <g fill="rgb(0.0%,0.0%,0.0%)"> 
 <g stroke-width="0.79999pt"> 
 <g stroke-linejoin="bevel"> 
 <path d=" M  69.02472 56.90549 L  72.11363 62.88058 L  77.49147 50.93039 L  82.86931 62.88058 L  88.24715 50.93039 L  93.62498 62.88058 L  99.00282 50.93039 L  101.69174 56.90549  " style="fill:none"/> 
 <g stroke-width="0.4pt"> 
 <g> 
 <g transform="matrix(1.0,0.0,0.0,1.0,85.35823,56.90549)"> 
 <g fill="rgb(0.0%,0.0%,0.0%)"> 
 <text style="stroke:none" transform="scale(1,-1) translate(0.0,0)" text-anchor="middle"  font-size="12"> 
</text> 
</g> 
 </g> 
 </g> 
 </g> 
 </g> 
 </g> 
 </g> 
 </g> 
 </g> 
 <g> 
 </g> 
 <g> 
 </g> 
 <g> 
 </g> 
 <g> 
 </g> 
 <g> 
 <g> 
 <g transform="matrix(1.0,0.0,0.0,1.0,78.17775,68.64479)"> 
 <g fill="rgb(0.0%,0.0%,0.0%)"> 
 <text style="stroke:none" transform="scale(1,-1) translate(7.18048,0)" text-anchor="middle"  font-size="12"> 
1&#x03A9;</text> 
</g> 
 </g> 
 </g> 
 </g> 
 <g> 
 </g> 
 <g> 
 </g> 
 <g> 
 <g stroke="rgb(0.0%,0.0%,0.0%)"> 
 <g fill="rgb(0.0%,0.0%,0.0%)"> 
 <g stroke-width="0.79999pt"> 
 <path d=" M  125.76118 28.45274 C  125.76118 35.05273 120.41096 40.40295 113.81097 40.40295 C  107.21098 40.40295 101.86076 35.05273 101.86076 28.45274 C  101.86076 21.85275 107.21098 16.50253 113.81097 16.50253 C  120.41096 16.50253 125.76118 21.85275 125.76118 28.45274 Z M  113.81097 28.45274  " style="fill:none"/> 
 <g> 
 <g transform="matrix(1.0,0.0,0.0,1.0,109.1443,21.08765)"> 
 <g fill="rgb(0.0%,0.0%,0.0%)"> 
 <text style="stroke:none" transform="scale(1,-1) translate(4.66667,0)" text-anchor="middle"  font-size="12"> 
<tspan font-family="cmsy" font-size="10">-</tspan></text> 
</g> 
 </g> 
 </g> 
 <g> 
 <g transform="matrix(1.0,0.0,0.0,1.0,109.24158,29.90121)"> 
 <g fill="rgb(0.0%,0.0%,0.0%)"> 
 <text style="stroke:none" transform="scale(1,-1) translate(4.5694,0)" text-anchor="middle"  font-size="12"> 
+</text> 
</g> 
 </g> 
 </g> 
 <g stroke-width="0.4pt"> 
 <g> 
 <g transform="matrix(0.0,-1.0,1.0,0.0,113.81097,28.45274)"> 
 <g fill="rgb(0.0%,0.0%,0.0%)"> 
 <text style="stroke:none" transform="scale(1,-1) translate(0.0,0)" text-anchor="middle"  font-size="12"> 
</text> 
</g> 
 </g> 
 </g> 
 </g> 
 </g> 
 </g> 
 </g> 
 </g> 
 <g> 
 </g> 
 <g> 
 </g> 
 <g> 
 </g> 
 <g> 
 </g> 
 <g> 
 </g> 
 <g> 
 <g> 
 <g transform="matrix(1.0,0.0,0.0,1.0,130.47087,24.35275)"> 
 <g fill="rgb(0.0%,0.0%,0.0%)"> 
 <text style="stroke:none" transform="scale(1,-1) translate(10.27905,0)" text-anchor="middle"  font-size="12"> 
45V</text> 
</g> 
 </g> 
 </g> 
 </g> 
 <g> 
 </g> 
 <g> 
 </g> 
 <g> 
 <g stroke="rgb(0.0%,0.0%,0.0%)"> 
 <g fill="rgb(0.0%,0.0%,0.0%)"> 
 <g stroke-width="0.79999pt"> 
 <g stroke-linejoin="bevel"> 
 <path d=" M  101.69174 0.0 L  98.60283 -5.9751 L  93.22499 5.9751 L  87.84715 -5.9751 L  82.46931 5.9751 L  77.09148 -5.9751 L  71.71364 5.9751 L  69.02472 0.0  " style="fill:none"/> 
 <g stroke-width="0.4pt"> 
 <g> 
 <g transform="matrix(-1.0,0.0,0.0,-1.0,85.35823,0.0)"> 
 <g fill="rgb(0.0%,0.0%,0.0%)"> 
 <text style="stroke:none" transform="scale(1,-1) translate(0.0,0)" text-anchor="middle"  font-size="12"> 
</text> 
</g> 
 </g> 
 </g> 
 </g> 
 </g> 
 </g> 
 </g> 
 </g> 
 </g> 
 <g> 
 </g> 
 <g> 
 </g> 
 <g> 
 </g> 
 <g> 
 </g> 
 <g> 
 <g> 
 <g transform="matrix(1.0,0.0,0.0,1.0,78.17775,-16.90596)"> 
 <g fill="rgb(0.0%,0.0%,0.0%)"> 
 <text style="stroke:none" transform="scale(1,-1) translate(7.18048,0)" text-anchor="middle"  font-size="12"> 
4&#x03A9;</text> 
</g> 
 </g> 
 </g> 
 </g> 
 <path d=" M  0.0 0.0 L  0.2 0.0 M  28.45274 0.0 M  0.0 0.0 L  28.45274 0.0 M  28.45274 0.0 L  56.90549 0.0 M  56.90549 0.0 M  56.70549 0.0 L  56.90549 0.0  " style="fill:none"/> 
 <g> 
 </g> 
 <g> 
 </g> 
 <g> 
 <g stroke="rgb(0.0%,0.0%,0.0%)"> 
 <g fill="rgb(0.0%,0.0%,0.0%)"> 
 <g stroke-width="0.4pt"> 
 <g> 
 <g transform="matrix(1.0,0.0,0.0,1.0,28.45274,0.0)"> 
 <g fill="rgb(0.0%,0.0%,0.0%)"> 
 <text style="stroke:none" transform="scale(1,-1) translate(0.0,0)" text-anchor="middle"  font-size="12"> 
</text> 
</g> 
 </g> 
 </g> 
 </g> 
 </g> 
 </g> 
 </g> 
 <g> 
 </g> 
 <g> 
 </g> 
 <g> 
 <g> 
 <g transform="matrix(1.0,0.0,0.0,1.0,56.90549,0.0)"> 
 <g fill="rgb(0.0%,0.0%,0.0%)"> 
 <text style="stroke:none" transform="scale(1,-1) translate(0.0,0)" text-anchor="middle"  font-size="12"> 
</text> 
</g> 
 </g> 
 </g> 
 <g> 
 <g> 
 <g stroke="rgb(0.0%,0.0%,0.0%)"> 
 <g fill="rgb(0.0%,0.0%,0.0%)"> 
 <path d=" M  58.49857 0.0 C  58.49857 0.87984 57.78532 1.59308 56.90549 1.59308 C  56.02565 1.59308 55.31241 0.87984 55.31241 0.0 C  55.31241 -0.87984 56.02565 -1.59308 56.90549 -1.59308 C  57.78532 -1.59308 58.49857 -0.87984 58.49857 0.0 Z M  56.90549 0.0  " /> 
 </g> 
 </g> 
 </g> 
 </g> 
 </g> 
 </g> 
 </g> 
 </g> 
 </g> 
 </g> 
 
                                             </g> 
</svg> 
